<svg baseProfile="full" height="28" version="1.1" viewBox="0 0 266 28" width="266" xmlns="http://www.w3.org/2000/svg" xmlns:ev="http://www.w3.org/2001/xml-events" xmlns:xlink="http://www.w3.org/1999/xlink"><defs /><g transform="translate(-5.16892233784467, -0.0)"><path d="M 50.0,0.0 L 50.003906,0.0 C 59.953106,0.0 68.01990599999999,9.9492 68.01990599999999,18.016 L 68.01990599999999,52.257999999999996 C 68.01990599999999,62.20719999999999 59.95350599999999,70.274 50.00390599999999,70.274 L 49.99999999999999,70.274 C 40.050799999999995,70.274 31.983999999999995,60.3248 31.983999999999995,52.258 L 31.983999999999995,18.016000000000005 C 31.983999999999995,8.066800000000006 40.050399999999996,7.105427357601002e-15 49.99999999999999,7.105427357601002e-15 L 50.0,0.0" fill="rgb(0,0,0)" transform="scale(0.2800005600011198)" /><path d="M 47.0,83.039 L 47.0,93.992 L 34.984,93.992 C 33.3278,93.992 31.984,95.33970000000001 31.984,96.9959 C 31.984,98.65610000000001 33.3278,99.99980000000001 34.984,99.99980000000001 L 65.015,99.99980000000001 C 66.6712,99.99980000000001 68.015,98.656 68.015,96.9959 C 68.015,95.33970000000001 66.6712,93.992 65.015,93.992 L 53.003,93.992 L 52.999094,83.039 C 68.983094,81.5234 81.534094,68.012 81.534094,51.621 L 81.538,35.742000000000004 C 81.538,34.0818 80.1903,32.7381 78.5341,32.7381 C 76.87389999999999,32.7381 75.5302,34.081900000000005 75.5302,35.742000000000004 L 75.5302,51.625 C 75.5302,65.719 64.07719999999999,77.18 49.999199999999995,77.18 C 35.9212,77.18 24.468199999999996,65.715 24.468199999999996,51.62500000000001 L 24.468199999999996,35.742000000000004 C 24.468199999999996,34.0818 23.124399999999994,32.7381 21.464299999999994,32.7381 C 19.808099999999996,32.7381 18.460399999999993,34.081900000000005 18.460399999999993,35.742000000000004 L 18.460399999999993,51.625 C 18.460399999999993,68.012 31.011399999999995,81.523 46.999399999999994,83.039 L 47.0,83.039" fill="rgb(0,0,0)" transform="scale(0.2800005600011198)" /><path d="M25.77948717948718 0.0V8.574358974358974H18.982051282051284Q18.982051282051284 8.574358974358974 18.96794871794872 8.588461538461537Q18.953846153846154 8.602564102564102 18.939743589743593 8.602564102564102Q18.925641025641028 8.602564102564102 18.925641025641028 8.63076923076923Q18.925641025641028 9.87179487179487 18.925641025641028 11.126923076923076Q18.925641025641028 12.38205128205128 18.925641025641028 13.637179487179488Q18.925641025641028 14.892307692307693 18.925641025641028 16.147435897435898Q18.925641025641028 17.402564102564103 18.925641025641028 18.657692307692308Q18.925641025641028 19.912820512820513 18.925641025641028 21.153846153846153H7.220512820512821Q7.220512820512821 19.066666666666666 7.220512820512821 16.97948717948718Q7.220512820512821 14.892307692307693 7.220512820512821 12.805128205128206Q7.220512820512821 10.717948717948717 7.220512820512821 8.63076923076923Q7.220512820512821 8.63076923076923 7.220512820512821 8.616666666666667Q7.220512820512821 8.602564102564102 7.206410256410257 8.588461538461537Q7.1923076923076925 8.574358974358974 7.1782051282051285 8.574358974358974Q7.164102564102564 8.574358974358974 7.164102564102564 8.574358974358974H0.3666666666666667V0.0Z M28.092307692307692 4.68205128205128V11.423076923076922Q29.361538461538462 10.605128205128205 31.053846153846152 10.182051282051281Q32.746153846153845 9.758974358974358 34.41025641025641 9.758974358974358Q35.48205128205129 9.758974358974358 36.455128205128204 9.956410256410255Q37.42820512820513 10.153846153846153 38.17564102564103 10.562820512820512Q38.92307692307693 10.971794871794872 39.36025641025641 11.606410256410257Q39.797435897435896 12.24102564102564 39.797435897435896 13.115384615384615Q39.797435897435896 13.143589743589743 39.797435897435896 13.185897435897434Q39.797435897435896 13.228205128205127 39.797435897435896 13.27051282051282Q39.797435897435896 13.312820512820512 39.797435897435896 13.369230769230768Q39.37435897435898 12.805128205128204 38.71153846153847 12.353846153846153Q38.04871794871795 11.902564102564101 37.21666666666667 11.592307692307692Q36.38461538461539 11.282051282051281 35.45384615384616 11.126923076923077Q34.52307692307693 10.971794871794872 33.53589743589744 10.971794871794872Q32.01282051282051 10.971794871794872 30.828205128205127 11.267948717948718Q29.643589743589743 11.564102564102564 28.78333333333333 12.1Q27.923076923076923 12.635897435897435 27.358974358974358 13.341025641025642Q26.794871794871796 14.046153846153846 26.512820512820515 14.835897435897436Q26.230769230769234 15.625641025641025 26.230769230769234 16.443589743589744Q26.230769230769234 17.797435897435896 26.794871794871796 18.81282051282051Q27.35897435897436 19.828205128205127 28.33205128205128 20.505128205128205Q29.305128205128206 21.182051282051283 30.532051282051285 21.534615384615385Q31.75897435897436 21.887179487179488 33.08461538461539 21.887179487179488Q34.184615384615384 21.887179487179488 35.29871794871795 21.675641025641028Q36.41282051282052 21.464102564102564 37.42820512820513 20.956410256410255Q38.02051282051282 19.574358974358972 38.62692307692308 18.192307692307693Q39.233333333333334 16.81025641025641 39.825641025641026 15.428205128205128Q39.48717948717949 16.246153846153845 38.838461538461544 16.443589743589744Q38.18974358974359 16.641025641025642 37.68205128205128 16.641025641025642Q36.63846153846154 16.641025641025642 36.07435897435897 16.203846153846154Q35.51025641025641 15.766666666666666 35.51025641025641 15.23076923076923Q35.51025641025641 14.694871794871794 36.060256410256414 14.27179487179487Q36.61025641025641 13.848717948717947 37.68205128205128 13.848717948717947Q38.16153846153846 13.848717948717947 38.64102564102564 13.975641025641025Q39.12051282051282 14.102564102564102 39.45897435897436 14.412820512820513Q39.797435897435896 14.723076923076922 39.797435897435896 15.23076923076923Q39.797435897435896 16.697435897435895 39.797435897435896 18.17820512820513Q39.797435897435896 19.65897435897436 39.797435897435896 21.153846153846153Q40.784615384615385 21.153846153846153 41.77179487179487 21.153846153846153Q42.758974358974356 21.153846153846153 43.746153846153845 21.153846153846153Q44.733333333333334 21.153846153846153 45.72051282051282 21.153846153846153Q46.70769230769231 21.153846153846153 47.6948717948718 21.153846153846153Q48.68205128205128 21.153846153846153 49.66923076923077 21.153846153846153Q49.66923076923077 18.41794871794872 49.66923076923077 15.682051282051283Q49.66923076923077 12.946153846153846 49.66923076923077 10.21025641025641Q49.66923076923077 8.348717948717947 48.65384615384616 6.966666666666666Q47.63846153846154 5.584615384615384 45.90384615384616 4.653846153846152Q44.16923076923077 3.7230769230769205 41.969230769230776 3.271794871794871Q39.769230769230774 2.820512820512821 37.400000000000006 2.820512820512821Q34.97435897435898 2.820512820512821 32.562820512820515 3.2858974358974358Q30.151282051282053 3.7512820512820504 28.092307692307692 4.68205128205128Z M50.76923076923077 21.153846153846153Q50.76923076923077 18.897435897435898 50.76923076923077 16.655128205128207Q50.76923076923077 14.412820512820513 50.76923076923077 12.170512820512819Q50.76923076923077 9.928205128205127 50.76923076923077 7.699999999999999Q50.76923076923077 5.782051282051281 50.76923076923077 3.8499999999999996Q50.76923076923077 1.9179487179487182 50.76923076923077 0.0H60.52820512820513Q60.52820512820513 1.184615384615384 60.52820512820513 2.3551282051282048Q60.52820512820513 3.5256410256410255 60.52820512820513 4.7102564102564095Q60.52820512820513 8.799999999999999 60.52820512820513 12.917948717948718Q60.52820512820513 17.035897435897436 60.52820512820513 21.153846153846153Z M61.656410256410254 21.153846153846153Q61.656410256410254 17.712820512820514 61.656410256410254 14.285897435897436Q61.656410256410254 10.858974358974358 61.656410256410254 7.446153846153845Q61.656410256410254 5.584615384615384 61.656410256410254 3.723076923076923Q61.656410256410254 1.861538461538462 61.656410256410254 0.0H71.41538461538461Q71.41538461538461 1.551282051282051 71.41538461538461 3.0884615384615373Q71.41538461538461 4.625641025641023 71.41538461538461 6.148717948717947Q71.41538461538461 7.671794871794871 71.41538461538461 9.20897435897436Q71.41538461538461 10.746153846153845 71.41538461538461 12.297435897435896Q71.41538461538461 12.297435897435896 71.41538461538461 12.311538461538461Q71.41538461538461 12.325641025641024 71.41538461538461 12.339743589743588Q71.41538461538461 12.353846153846153 71.41538461538461 12.38205128205128Q71.41538461538461 12.551282051282051 71.41538461538461 13.03076923076923Q71.41538461538461 13.51025641025641 71.41538461538461 14.215384615384615Q71.41538461538461 15.202564102564102 71.41538461538461 16.45769230769231Q71.41538461538461 17.712820512820514 71.41538461538461 18.953846153846154Q71.41538461538461 20.194871794871794 71.41538461538461 21.153846153846153ZM81.20256410256411 11.902564102564101Q81.17435897435897 11.93076923076923 81.17435897435897 11.944871794871794Q81.17435897435897 11.95897435897436 81.20256410256411 11.987179487179487L86.61794871794872 21.153846153846153H75.25128205128205Q74.63076923076923 19.687179487179485 73.99615384615385 18.248717948717946Q73.36153846153846 16.81025641025641 72.72692307692307 15.357692307692307Q72.09230769230768 13.905128205128204 71.44358974358974 12.466666666666667Q71.44358974358974 12.466666666666667 71.44358974358974 12.452564102564102Q71.44358974358974 12.438461538461537 71.42948717948718 12.424358974358974Q71.41538461538461 12.410256410256409 71.41538461538461 12.410256410256409Q71.41538461538461 12.410256410256409 71.42948717948718 12.396153846153844Q71.44358974358974 12.38205128205128 71.44358974358974 12.367948717948718Q71.44358974358974 12.353846153846153 71.44358974358974 12.353846153846153L75.3923076923077 3.6666666666666643H86.44871794871796Z M86.87179487179488 21.153846153846153Q86.87179487179488 19.151282051282053 86.87179487179488 17.148717948717948Q86.87179487179488 15.146153846153846 86.87179487179488 13.129487179487178Q86.87179487179488 11.112820512820512 86.87179487179488 9.11025641025641Q86.87179487179488 7.728205128205127 86.87179487179488 6.374358974358974Q86.87179487179488 5.02051282051282 86.87179487179488 3.6666666666666643H96.63076923076923Q96.63076923076923 5.528205128205128 96.63076923076923 7.375641025641025Q96.63076923076923 9.223076923076922 96.63076923076923 11.084615384615384Q96.63076923076923 13.594871794871795 96.63076923076923 16.119230769230768Q96.63076923076923 18.643589743589743 96.63076923076923 21.153846153846153ZM99.7897435897436 21.153846153846153Q99.7897435897436 18.953846153846154 99.7897435897436 16.697435897435895Q99.7897435897436 14.44102564102564 99.7897435897436 12.24102564102564Q99.7897435897436 11.423076923076922 99.38076923076923 11.084615384615383Q98.97179487179487 10.746153846153845 98.40769230769232 10.717948717948717Q97.84358974358975 10.689743589743589 97.37820512820514 10.858974358974358Q96.91282051282052 11.028205128205128 96.8 11.197435897435897L99.05641025641026 3.948717948717949Q101.11538461538461 3.046153846153846 103.51282051282051 3.046153846153846Q104.6974358974359 3.046153846153846 105.76923076923077 3.328205128205127Q106.84102564102564 3.610256410256408 107.70128205128205 4.202564102564102Q108.56153846153846 4.794871794871796 109.0551282051282 5.767948717948718Q109.54871794871795 6.74102564102564 109.54871794871795 8.094871794871795Q109.54871794871795 8.912820512820511 109.54871794871795 9.758974358974358Q109.54871794871795 10.605128205128205 109.54871794871795 11.423076923076922Q109.54871794871795 11.817948717948717 109.54871794871795 12.226923076923075Q109.54871794871795 12.635897435897435 109.54871794871795 13.03076923076923Q109.54871794871795 13.425641025641024 109.54871794871795 13.848717948717947Q109.54871794871795 15.653846153846153 109.54871794871795 17.48717948717949Q109.54871794871795 19.32051282051282 109.54871794871795 21.153846153846153ZM112.53846153846153 21.153846153846153Q112.53846153846153 18.953846153846154 112.53846153846153 16.697435897435895Q112.53846153846153 14.44102564102564 112.53846153846153 12.24102564102564Q112.53846153846153 11.423076923076922 112.12948717948717 11.084615384615383Q111.72051282051282 10.746153846153845 111.15641025641025 10.717948717948717Q110.59230769230768 10.689743589743589 110.12692307692308 10.858974358974358Q109.66153846153846 11.028205128205128 109.54871794871795 11.197435897435897L111.52307692307693 3.948717948717949Q112.53846153846153 3.4974358974358957 113.70897435897436 3.271794871794871Q114.87948717948717 3.046153846153846 116.03589743589744 3.046153846153846Q117.67179487179487 3.046153846153846 119.09615384615384 3.5538461538461537Q120.52051282051282 4.061538461538461 121.40897435897435 5.161538461538461Q122.29743589743589 6.261538461538461 122.29743589743589 8.094871794871795V21.153846153846153Z M124.77948717948718 4.68205128205128V11.423076923076922Q126.04871794871795 10.605128205128205 127.74102564102564 10.182051282051281Q129.43333333333334 9.758974358974358 131.0974358974359 9.758974358974358Q132.16923076923075 9.758974358974358 133.14230769230767 9.956410256410255Q134.1153846153846 10.153846153846153 134.86282051282052 10.562820512820512Q135.6102564102564 10.971794871794872 136.0474358974359 11.606410256410257Q136.48461538461538 12.24102564102564 136.48461538461538 13.115384615384615Q136.48461538461538 13.143589743589743 136.48461538461538 13.185897435897434Q136.48461538461538 13.228205128205127 136.48461538461538 13.27051282051282Q136.48461538461538 13.312820512820512 136.48461538461538 13.369230769230768Q136.06153846153845 12.805128205128204 135.39871794871794 12.353846153846153Q134.73589743589744 11.902564102564101 133.90384615384616 11.592307692307692Q133.07179487179488 11.282051282051281 132.14102564102564 11.126923076923077Q131.21025641025642 10.971794871794872 130.22307692307692 10.971794871794872Q128.7 10.971794871794872 127.5153846153846 11.267948717948718Q126.33076923076922 11.564102564102564 125.47051282051282 12.1Q124.61025641025641 12.635897435897435 124.04615384615384 13.341025641025642Q123.48205128205127 14.046153846153846 123.19999999999999 14.835897435897436Q122.91794871794872 15.625641025641025 122.91794871794872 16.443589743589744Q122.91794871794872 17.797435897435896 123.48205128205129 18.81282051282051Q124.04615384615384 19.828205128205127 125.01923076923077 20.505128205128205Q125.99230769230769 21.182051282051283 127.21923076923076 21.534615384615385Q128.44615384615383 21.887179487179488 129.77179487179487 21.887179487179488Q130.87179487179486 21.887179487179488 131.9858974358974 21.675641025641028Q133.1 21.464102564102564 134.1153846153846 20.956410256410255Q134.7076923076923 19.574358974358972 135.31410256410254 18.192307692307693Q135.9205128205128 16.81025641025641 136.5128205128205 15.428205128205128Q136.17435897435897 16.246153846153845 135.52564102564102 16.443589743589744Q134.87692307692308 16.641025641025642 134.36923076923077 16.641025641025642Q133.32564102564103 16.641025641025642 132.76153846153846 16.203846153846154Q132.1974358974359 15.766666666666666 132.1974358974359 15.23076923076923Q132.1974358974359 14.694871794871794 132.74743589743588 14.27179487179487Q133.2974358974359 13.848717948717947 134.36923076923077 13.848717948717947Q134.84871794871793 13.848717948717947 135.32820512820513 13.975641025641025Q135.8076923076923 14.102564102564102 136.14615384615382 14.412820512820513Q136.48461538461538 14.723076923076922 136.48461538461538 15.23076923076923Q136.48461538461538 16.697435897435895 136.48461538461538 18.17820512820513Q136.48461538461538 19.65897435897436 136.48461538461538 21.153846153846153Q137.47179487179486 21.153846153846153 138.45897435897433 21.153846153846153Q139.44615384615383 21.153846153846153 140.43333333333334 21.153846153846153Q141.4205128205128 21.153846153846153 142.4076923076923 21.153846153846153Q143.3948717948718 21.153846153846153 144.3820512820513 21.153846153846153Q145.36923076923077 21.153846153846153 146.35641025641024 21.153846153846153Q146.35641025641024 18.41794871794872 146.35641025641024 15.682051282051283Q146.35641025641024 12.946153846153846 146.35641025641024 10.21025641025641Q146.35641025641024 8.348717948717947 145.34102564102562 6.966666666666666Q144.32564102564103 5.584615384615384 142.59102564102562 4.653846153846152Q140.85641025641024 3.7230769230769205 138.65641025641025 3.271794871794871Q136.45641025641027 2.820512820512821 134.08717948717947 2.820512820512821Q131.66153846153847 2.820512820512821 129.25 3.2858974358974358Q126.83846153846153 3.7512820512820504 124.77948717948718 4.68205128205128Z M157.1871794871795 11.338461538461537Q157.52564102564102 10.04102564102564 157.85 8.77179487179487Q158.17435897435897 7.5025641025641026 158.49871794871797 6.2192307692307685Q158.82307692307694 4.935897435897434 159.13333333333333 3.6666666666666643H164.63333333333333V11.338461538461537ZM147.51282051282053 13.792307692307691Q147.51282051282053 11.366666666666665 147.51282051282053 8.687179487179487Q147.51282051282053 6.007692307692308 147.51282051282053 3.610256410256408L157.15897435897438 1.2974358974358964Q157.15897435897438 2.679487179487179 157.15897435897438 4.1179487179487175Q157.15897435897438 5.556410256410256 157.15897435897438 6.994871794871795Q157.15897435897438 8.038461538461538 157.15897435897438 9.082051282051282Q157.15897435897438 10.125641025641025 157.15897435897438 11.14102564102564Q157.15897435897438 11.169230769230769 157.15897435897438 11.169230769230769Q157.15897435897438 11.169230769230769 157.15897435897438 11.197435897435897Q157.15897435897438 11.733333333333333 157.39871794871794 12.128205128205128Q157.63846153846154 12.523076923076923 158.07564102564103 12.79102564102564Q158.51282051282053 13.058974358974359 159.1051282051282 13.2Q159.6974358974359 13.341025641025642 160.43076923076924 13.341025641025642Q161.24871794871797 13.341025641025642 162.0948717948718 13.087179487179487Q162.94102564102565 12.833333333333332 163.6320512820513 12.38205128205128Q164.32307692307694 11.93076923076923 164.63333333333333 11.338461538461537V19.912820512820513Q163.42051282051284 20.871794871794872 161.50256410256412 21.337179487179487Q159.58461538461538 21.8025641025641 157.66666666666669 21.8025641025641Q154.76153846153846 21.8025641025641 152.4628205128205 20.857692307692307Q150.16410256410256 19.912820512820513 148.83846153846156 18.121794871794872Q147.51282051282053 16.33076923076923 147.51282051282053 13.792307692307691Z M178.22820512820513 14.779487179487178Q179.72307692307692 14.779487179487178 180.54102564102564 14.243589743589743Q181.35897435897436 13.707692307692307 181.38717948717948 12.776923076923076L190.1025641025641 15.625641025641025Q189.59487179487178 17.402564102564103 187.9448717948718 18.855128205128203Q186.2948717948718 20.307692307692307 183.7846153846154 21.153846153846153Q181.27435897435896 22.0 178.17179487179487 22.0Q175.5205128205128 22.0 173.22179487179488 21.407692307692308Q170.92307692307693 20.815384615384616 169.18846153846152 19.616666666666667Q167.45384615384614 18.41794871794872 166.46666666666664 16.612820512820512Q165.47948717948717 14.807692307692307 165.47948717948717 12.410256410256409Q165.47948717948717 10.012820512820513 166.46666666666664 8.207692307692307Q167.45384615384614 6.402564102564101 169.18846153846152 5.203846153846153Q170.92307692307693 4.005128205128205 173.23589743589744 3.412820512820513Q175.54871794871795 2.820512820512821 178.17179487179487 2.820512820512821Q180.85128205128206 2.820512820512821 183.09358974358975 3.412820512820513Q185.33589743589744 4.005128205128205 186.9576923076923 5.232051282051281Q188.5794871794872 6.458974358974357 189.46794871794873 8.334615384615383Q190.35641025641024 10.21025641025641 190.35641025641024 12.776923076923076H174.98461538461538Q174.98461538461538 12.776923076923076 174.97051282051282 12.776923076923076Q174.95641025641027 12.776923076923076 174.95641025641027 12.776923076923076Q174.95641025641027 12.776923076923076 174.95641025641027 12.805128205128204Q174.95641025641027 13.228205128205127 175.1820512820513 13.594871794871793Q175.40769230769232 13.96153846153846 175.81666666666666 14.229487179487178Q176.225641025641 14.497435897435896 176.83205128205128 14.638461538461538Q177.43846153846152 14.779487179487178 178.22820512820513 14.779487179487178ZM178.17179487179487 9.956410256410257Q176.78974358974358 9.956410256410257 175.88717948717948 10.45Q174.98461538461538 10.943589743589742 174.98461538461538 11.846153846153845Q174.98461538461538 11.874358974358973 174.98461538461538 11.888461538461538Q174.98461538461538 11.902564102564101 174.98461538461538 11.902564102564101Q174.98461538461538 11.902564102564101 174.99871794871794 11.902564102564101Q175.0128205128205 11.902564102564101 175.0128205128205 11.902564102564101H181.3025641025641Q181.33076923076922 11.902564102564101 181.33076923076922 11.888461538461538Q181.33076923076922 11.874358974358973 181.33076923076922 11.846153846153845Q181.33076923076922 11.394871794871793 181.09102564102562 11.042307692307691Q180.85128205128206 10.689743589743589 180.42820512820515 10.45Q180.00512820512822 10.21025641025641 179.42692307692306 10.083333333333332Q178.84871794871793 9.956410256410257 178.17179487179487 9.956410256410257Z  M219.7179487179487 0.0Q220.225641025641 1.7487179487179496 220.71923076923076 3.5115384615384615Q221.2128205128205 5.274358974358973 221.70641025641027 7.037179487179486Q222.2 8.799999999999999 222.7076923076923 10.562820512820512Q223.2153846153846 12.325641025641024 223.70897435897436 14.088461538461537Q224.2025641025641 15.851282051282052 224.69615384615383 17.614102564102566Q225.18974358974359 19.376923076923077 225.6974358974359 21.153846153846153H213.1179487179487L212.63846153846154 18.38974358974359Q212.52564102564102 18.38974358974359 212.44102564102565 18.38974358974359Q212.35641025641024 18.38974358974359 212.24358974358972 18.38974358974359H209.14102564102564Q209.05641025641026 18.38974358974359 208.97179487179488 18.38974358974359Q208.88717948717948 18.38974358974359 208.8025641025641 18.38974358974359L208.3230769230769 21.153846153846153H196.27948717948718Q196.7871794871795 19.376923076923077 197.28076923076924 17.614102564102566Q197.77435897435896 15.851282051282052 198.2679487179487 14.088461538461537Q198.76153846153846 12.325641025641024 199.2551282051282 10.562820512820512Q199.74871794871794 8.799999999999999 200.2423076923077 7.037179487179486Q200.73589743589744 5.274358974358973 201.2294871794872 3.5115384615384615Q201.72307692307692 1.7487179487179496 202.2025641025641 0.0ZM209.14102564102564 16.387179487179488Q209.14102564102564 16.415384615384614 209.14102564102564 16.415384615384614Q209.14102564102564 16.415384615384614 209.16923076923075 16.415384615384614H212.27179487179487Q212.29999999999998 16.415384615384614 212.29999999999998 16.401282051282053Q212.29999999999998 16.387179487179488 212.29999999999998 16.387179487179488Q212.29999999999998 16.387179487179488 212.29999999999998 16.387179487179488Q212.29999999999998 16.387179487179488 212.1871794871795 15.696153846153846Q212.07435897435897 15.005128205128205 211.89102564102564 13.947435897435897Q211.7076923076923 12.889743589743588 211.5102564102564 11.69102564102564Q211.3128205128205 10.492307692307692 211.14358974358976 9.420512820512819Q210.97435897435898 8.348717948717947 210.8474358974359 7.671794871794871Q210.72051282051282 6.994871794871795 210.72051282051282 6.994871794871795Q210.72051282051282 6.994871794871795 210.70641025641027 6.994871794871795Q210.69230769230768 6.994871794871795 210.69230769230768 6.994871794871795Q210.69230769230768 6.994871794871795 210.57948717948716 7.671794871794871Q210.46666666666667 8.348717948717947 210.28333333333333 9.420512820512819Q210.1 10.492307692307692 209.9025641025641 11.69102564102564Q209.7051282051282 12.889743589743588 209.53589743589743 13.947435897435897Q209.36666666666667 15.005128205128205 209.25384615384615 15.696153846153846Q209.14102564102564 16.387179487179488 209.14102564102564 16.387179487179488Z M226.31794871794872 21.153846153846153Q226.31794871794872 19.123076923076923 226.31794871794872 17.092307692307692Q226.31794871794872 15.061538461538461 226.31794871794872 13.03076923076923Q226.31794871794872 11.0 226.31794871794872 8.96923076923077Q226.31794871794872 6.938461538461537 226.31794871794872 4.907692307692308Q226.31794871794872 3.6666666666666643 226.31794871794872 2.4397435897435873Q226.31794871794872 1.2128205128205103 226.31794871794872 0.0H238.02307692307693Q238.02307692307693 2.735897435897435 238.02307692307693 5.457692307692307Q238.02307692307693 8.179487179487179 238.02307692307693 10.915384615384614Q238.02307692307693 12.607692307692307 238.02307692307693 14.314102564102564Q238.02307692307693 16.02051282051282 238.02307692307693 17.72692307692308Q238.02307692307693 19.433333333333334 238.02307692307693 21.153846153846153Z " fill="rgb(0,0,0)" transform="translate(27.661763323526635, 3.0)" /></g></svg>